<svg width="1024" height="753" viewBox="0 0 1024 753" fill="none" xmlns="http://www.w3.org/2000/svg">
<g clip-path="url(#clip0_122_130)">
<rect width="1024" height="753" fill="#121214"/>
<g opacity="0.2" filter="url(#filter0_f_122_130)">
<ellipse cx="445.5" cy="58" rx="670.5" ry="350" fill="#B3A659"/>
</g>
<path d="M-33.9651 294C-32.4698 294 -31.3378 294.63 -30.5692 295.891C-29.7866 297.138 -29.3953 298.953 -29.3953 301.336C-29.3953 303.719 -29.7866 305.541 -30.5692 306.802C-31.3378 308.063 -32.4698 308.693 -33.9651 308.693C-35.4464 308.693 -36.5784 308.063 -37.361 306.802C-38.1436 305.541 -38.5349 303.719 -38.5349 301.336C-38.5349 298.967 -38.1436 297.152 -37.361 295.891C-36.5784 294.63 -35.4464 294 -33.9651 294ZM-37.0466 301.336C-37.0466 303.026 -36.8928 304.35 -36.5854 305.306L-31.9317 296.099C-32.4209 295.448 -33.0987 295.122 -33.9651 295.122C-34.9294 295.122 -35.684 295.635 -36.229 296.66C-36.7741 297.672 -37.0466 299.23 -37.0466 301.336ZM-33.9651 307.55C-32.9869 307.55 -32.2252 307.044 -31.6802 306.033C-31.1352 305.008 -30.8627 303.442 -30.8627 301.336C-30.8627 299.549 -31.0373 298.163 -31.3867 297.18L-36.0404 306.469C-35.5373 307.19 -34.8455 307.55 -33.9651 307.55Z" fill="url(#paint0_linear_122_130)" fill-opacity="0.6"/>
<path d="M-32.7074 331.135H-29.6259V332.236H-37.6126V331.135H-34.0489V319.455L-37.4449 321.471L-38.0318 320.536L-33.8393 317.959H-32.7074V331.135Z" fill="url(#paint1_linear_122_130)" fill-opacity="0.6"/>
<path d="M-33.9651 341.502C-32.4698 341.502 -31.3378 342.133 -30.5692 343.393C-29.7866 344.64 -29.3953 346.455 -29.3953 348.838C-29.3953 351.221 -29.7866 353.043 -30.5692 354.304C-31.3378 355.565 -32.4698 356.195 -33.9651 356.195C-35.4464 356.195 -36.5784 355.565 -37.361 354.304C-38.1436 353.043 -38.5349 351.221 -38.5349 348.838C-38.5349 346.469 -38.1436 344.654 -37.361 343.393C-36.5784 342.133 -35.4464 341.502 -33.9651 341.502ZM-37.0466 348.838C-37.0466 350.529 -36.8928 351.852 -36.5854 352.808L-31.9317 343.601C-32.4209 342.95 -33.0987 342.624 -33.9651 342.624C-34.9294 342.624 -35.684 343.137 -36.229 344.162C-36.7741 345.174 -37.0466 346.732 -37.0466 348.838ZM-33.9651 355.052C-32.9869 355.052 -32.2252 354.546 -31.6802 353.535C-31.1352 352.51 -30.8627 350.944 -30.8627 348.838C-30.8627 347.051 -31.0373 345.665 -31.3867 344.682L-36.0404 353.971C-35.5373 354.692 -34.8455 355.052 -33.9651 355.052Z" fill="url(#paint2_linear_122_130)" fill-opacity="0.6"/>
<path d="M-32.7074 378.637H-29.6259V379.738H-37.6126V378.637H-34.0489V366.957L-37.4449 368.973L-38.0318 368.038L-33.8393 365.461H-32.7074V378.637Z" fill="url(#paint3_linear_122_130)" fill-opacity="0.6"/>
<path d="M-32.7074 402.388H-29.6259V403.489H-37.6126V402.388H-34.0489V390.708L-37.4449 392.724L-38.0318 391.789L-33.8393 389.212H-32.7074V402.388Z" fill="url(#paint4_linear_122_130)" fill-opacity="0.6"/>
<path d="M-33.9651 412.755C-32.4698 412.755 -31.3378 413.386 -30.5692 414.646C-29.7866 415.893 -29.3953 417.708 -29.3953 420.091C-29.3953 422.474 -29.7866 424.296 -30.5692 425.557C-31.3378 426.818 -32.4698 427.448 -33.9651 427.448C-35.4464 427.448 -36.5784 426.818 -37.361 425.557C-38.1436 424.296 -38.5349 422.474 -38.5349 420.091C-38.5349 417.722 -38.1436 415.907 -37.361 414.646C-36.5784 413.386 -35.4464 412.755 -33.9651 412.755ZM-37.0466 420.091C-37.0466 421.782 -36.8928 423.105 -36.5854 424.061L-31.9317 414.854C-32.4209 414.203 -33.0987 413.878 -33.9651 413.878C-34.9294 413.878 -35.684 414.39 -36.229 415.415C-36.7741 416.427 -37.0466 417.985 -37.0466 420.091ZM-33.9651 426.305C-32.9869 426.305 -32.2252 425.8 -31.6802 424.788C-31.1352 423.763 -30.8627 422.197 -30.8627 420.091C-30.8627 418.304 -31.0373 416.919 -31.3867 415.935L-36.0404 425.225C-35.5373 425.945 -34.8455 426.305 -33.9651 426.305Z" fill="url(#paint5_linear_122_130)" fill-opacity="0.6"/>
<path d="M-32.7074 449.89H-29.6259V450.992H-37.6126V449.89H-34.0489V438.21L-37.4449 440.226L-38.0318 439.291L-33.8393 436.714H-32.7074V449.89Z" fill="url(#paint6_linear_122_130)" fill-opacity="0.6"/>
<path d="M-33.9651 460.257C-32.4698 460.257 -31.3378 460.888 -30.5692 462.149C-29.7866 463.396 -29.3953 465.211 -29.3953 467.594C-29.3953 469.977 -29.7866 471.798 -30.5692 473.059C-31.3378 474.32 -32.4698 474.95 -33.9651 474.95C-35.4464 474.95 -36.5784 474.32 -37.361 473.059C-38.1436 471.798 -38.5349 469.977 -38.5349 467.594C-38.5349 465.224 -38.1436 463.409 -37.361 462.149C-36.5784 460.888 -35.4464 460.257 -33.9651 460.257ZM-37.0466 467.594C-37.0466 469.284 -36.8928 470.607 -36.5854 471.563L-31.9317 462.356C-32.4209 461.705 -33.0987 461.38 -33.9651 461.38C-34.9294 461.38 -35.684 461.892 -36.229 462.918C-36.7741 463.929 -37.0466 465.488 -37.0466 467.594ZM-33.9651 473.807C-32.9869 473.807 -32.2252 473.302 -31.6802 472.29C-31.1352 471.265 -30.8627 469.699 -30.8627 467.594C-30.8627 465.806 -31.0373 464.421 -31.3867 463.437L-36.0404 472.727C-35.5373 473.447 -34.8455 473.807 -33.9651 473.807Z" fill="url(#paint7_linear_122_130)" fill-opacity="0.6"/>
<path d="M-33.9651 484.008C-32.4698 484.008 -31.3378 484.639 -30.5692 485.9C-29.7866 487.147 -29.3953 488.962 -29.3953 491.345C-29.3953 493.728 -29.7866 495.549 -30.5692 496.81C-31.3378 498.071 -32.4698 498.701 -33.9651 498.701C-35.4464 498.701 -36.5784 498.071 -37.361 496.81C-38.1436 495.549 -38.5349 493.728 -38.5349 491.345C-38.5349 488.975 -38.1436 487.16 -37.361 485.9C-36.5784 484.639 -35.4464 484.008 -33.9651 484.008ZM-37.0466 491.345C-37.0466 493.035 -36.8928 494.358 -36.5854 495.314L-31.9317 486.107C-32.4209 485.456 -33.0987 485.131 -33.9651 485.131C-34.9294 485.131 -35.684 485.643 -36.229 486.669C-36.7741 487.68 -37.0466 489.239 -37.0466 491.345ZM-33.9651 497.558C-32.9869 497.558 -32.2252 497.053 -31.6802 496.041C-31.1352 495.016 -30.8627 493.451 -30.8627 491.345C-30.8627 489.557 -31.0373 488.172 -31.3867 487.188L-36.0404 496.478C-35.5373 497.198 -34.8455 497.558 -33.9651 497.558Z" fill="url(#paint8_linear_122_130)" fill-opacity="0.6"/>
<path d="M-32.7074 521.143H-29.6259V522.245H-37.6126V521.143H-34.0489V509.464L-37.4449 511.48L-38.0318 510.544L-33.8393 507.967H-32.7074V521.143Z" fill="url(#paint9_linear_122_130)" fill-opacity="0.6"/>
<path d="M-33.9651 531.511C-32.4698 531.511 -31.3378 532.141 -30.5692 533.402C-29.7866 534.649 -29.3953 536.464 -29.3953 538.847C-29.3953 541.23 -29.7866 543.052 -30.5692 544.312C-31.3378 545.573 -32.4698 546.204 -33.9651 546.204C-35.4464 546.204 -36.5784 545.573 -37.361 544.312C-38.1436 543.052 -38.5349 541.23 -38.5349 538.847C-38.5349 536.478 -38.1436 534.663 -37.361 533.402C-36.5784 532.141 -35.4464 531.511 -33.9651 531.511ZM-37.0466 538.847C-37.0466 540.537 -36.8928 541.86 -36.5854 542.816L-31.9317 533.61C-32.4209 532.958 -33.0987 532.633 -33.9651 532.633C-34.9294 532.633 -35.684 533.145 -36.229 534.171C-36.7741 535.182 -37.0466 536.741 -37.0466 538.847ZM-33.9651 545.061C-32.9869 545.061 -32.2252 544.555 -31.6802 543.543C-31.1352 542.518 -30.8627 540.953 -30.8627 538.847C-30.8627 537.059 -31.0373 535.674 -31.3867 534.69L-36.0404 543.98C-35.5373 544.7 -34.8455 545.061 -33.9651 545.061Z" fill="url(#paint10_linear_122_130)" fill-opacity="0.6"/>
<path d="M-32.7074 568.645H-29.6259V569.747H-37.6126V568.645H-34.0489V556.966L-37.4449 558.982L-38.0318 558.046L-33.8393 555.469H-32.7074V568.645Z" fill="url(#paint11_linear_122_130)" fill-opacity="0.6"/>
<path d="M-32.7074 592.396H-29.6259V593.498H-37.6126V592.396H-34.0489V580.717L-37.4449 582.733L-38.0318 581.798L-33.8393 579.221H-32.7074V592.396Z" fill="url(#paint12_linear_122_130)" fill-opacity="0.6"/>
<path d="M4.9651 341.502C6.46042 341.502 7.59239 342.133 8.36101 343.393C9.14361 344.64 9.5349 346.455 9.5349 348.838C9.5349 351.221 9.14361 353.043 8.36101 354.304C7.59239 355.565 6.46042 356.195 4.9651 356.195C3.48376 356.195 2.35178 355.565 1.56919 354.304C0.786589 353.043 0.395292 351.221 0.395292 348.838C0.395292 346.469 0.786589 344.654 1.56919 343.393C2.35178 342.133 3.48376 341.502 4.9651 341.502ZM1.88362 348.838C1.88362 350.529 2.03735 351.852 2.3448 352.808L6.99845 343.601C6.50933 342.95 5.83155 342.624 4.9651 342.624C4.00083 342.624 3.24618 343.137 2.70116 344.162C2.15613 345.174 1.88362 346.732 1.88362 348.838ZM4.9651 355.052C5.94335 355.052 6.70497 354.546 7.25 353.535C7.79502 352.51 8.06754 350.944 8.06754 348.838C8.06754 347.051 7.89284 345.665 7.54347 344.682L2.88982 353.971C3.39292 354.692 4.08468 355.052 4.9651 355.052Z" fill="url(#paint13_linear_122_130)" fill-opacity="0.6"/>
<path d="M6.22284 378.637H9.30432V379.738H1.31764V378.637H4.88125V366.957L1.48534 368.973L0.898385 368.038L5.09087 365.461H6.22284V378.637Z" fill="url(#paint14_linear_122_130)" fill-opacity="0.6"/>
<path d="M4.9651 389.004C6.46042 389.004 7.59239 389.635 8.36101 390.895C9.14361 392.142 9.5349 393.957 9.5349 396.34C9.5349 398.723 9.14361 400.545 8.36101 401.806C7.59239 403.067 6.46042 403.697 4.9651 403.697C3.48376 403.697 2.35178 403.067 1.56919 401.806C0.786589 400.545 0.395292 398.723 0.395292 396.34C0.395292 393.971 0.786589 392.156 1.56919 390.895C2.35178 389.635 3.48376 389.004 4.9651 389.004ZM1.88362 396.34C1.88362 398.031 2.03735 399.354 2.3448 400.31L6.99845 391.103C6.50933 390.452 5.83155 390.126 4.9651 390.126C4.00083 390.126 3.24618 390.639 2.70116 391.664C2.15613 392.676 1.88362 394.234 1.88362 396.34ZM4.9651 402.554C5.94335 402.554 6.70497 402.049 7.25 401.037C7.79502 400.012 8.06754 398.446 8.06754 396.34C8.06754 394.553 7.89284 393.168 7.54347 392.184L2.88982 401.474C3.39292 402.194 4.08468 402.554 4.9651 402.554Z" fill="url(#paint15_linear_122_130)" fill-opacity="0.6"/>
<path d="M4.9651 412.755C6.46042 412.755 7.59239 413.386 8.36101 414.646C9.14361 415.893 9.5349 417.708 9.5349 420.091C9.5349 422.474 9.14361 424.296 8.36101 425.557C7.59239 426.818 6.46042 427.448 4.9651 427.448C3.48376 427.448 2.35178 426.818 1.56919 425.557C0.786589 424.296 0.395292 422.474 0.395292 420.091C0.395292 417.722 0.786589 415.907 1.56919 414.646C2.35178 413.386 3.48376 412.755 4.9651 412.755ZM1.88362 420.091C1.88362 421.782 2.03735 423.105 2.3448 424.061L6.99845 414.854C6.50933 414.203 5.83155 413.878 4.9651 413.878C4.00083 413.878 3.24618 414.39 2.70116 415.415C2.15613 416.427 1.88362 417.985 1.88362 420.091ZM4.9651 426.305C5.94335 426.305 6.70497 425.8 7.25 424.788C7.79502 423.763 8.06754 422.197 8.06754 420.091C8.06754 418.304 7.89284 416.919 7.54347 415.935L2.88982 425.225C3.39292 425.945 4.08468 426.305 4.9651 426.305Z" fill="url(#paint16_linear_122_130)" fill-opacity="0.6"/>
<path d="M6.22284 449.89H9.30432V450.992H1.31764V449.89H4.88125V438.21L1.48534 440.226L0.898385 439.291L5.09087 436.714H6.22284V449.89Z" fill="url(#paint17_linear_122_130)" fill-opacity="0.6"/>
<path d="M4.9651 460.257C6.46042 460.257 7.59239 460.888 8.36101 462.149C9.14361 463.396 9.5349 465.211 9.5349 467.594C9.5349 469.977 9.14361 471.798 8.36101 473.059C7.59239 474.32 6.46042 474.95 4.9651 474.95C3.48376 474.95 2.35178 474.32 1.56919 473.059C0.786589 471.798 0.395292 469.977 0.395292 467.594C0.395292 465.224 0.786589 463.409 1.56919 462.149C2.35178 460.888 3.48376 460.257 4.9651 460.257ZM1.88362 467.594C1.88362 469.284 2.03735 470.607 2.3448 471.563L6.99845 462.356C6.50933 461.705 5.83155 461.38 4.9651 461.38C4.00083 461.38 3.24618 461.892 2.70116 462.918C2.15613 463.929 1.88362 465.488 1.88362 467.594ZM4.9651 473.807C5.94335 473.807 6.70497 473.302 7.25 472.29C7.79502 471.265 8.06754 469.699 8.06754 467.594C8.06754 465.806 7.89284 464.421 7.54347 463.437L2.88982 472.727C3.39292 473.447 4.08468 473.807 4.9651 473.807Z" fill="url(#paint18_linear_122_130)" fill-opacity="0.6"/>
<path d="M6.22284 497.392H9.30432V498.494H1.31764V497.392H4.88125V485.713L1.48534 487.728L0.898385 486.793L5.09087 484.216H6.22284V497.392Z" fill="url(#paint19_linear_122_130)" fill-opacity="0.6"/>
<path d="M4.9651 507.76C6.46042 507.76 7.59239 508.39 8.36101 509.651C9.14361 510.898 9.5349 512.713 9.5349 515.096C9.5349 517.479 9.14361 519.301 8.36101 520.561C7.59239 521.822 6.46042 522.453 4.9651 522.453C3.48376 522.453 2.35178 521.822 1.56919 520.561C0.786589 519.301 0.395292 517.479 0.395292 515.096C0.395292 512.726 0.786589 510.911 1.56919 509.651C2.35178 508.39 3.48376 507.76 4.9651 507.76ZM1.88362 515.096C1.88362 516.786 2.03735 518.109 2.3448 519.065L6.99845 509.859C6.50933 509.207 5.83155 508.882 4.9651 508.882C4.00083 508.882 3.24618 509.394 2.70116 510.42C2.15613 511.431 1.88362 512.99 1.88362 515.096ZM4.9651 521.31C5.94335 521.31 6.70497 520.804 7.25 519.792C7.79502 518.767 8.06754 517.202 8.06754 515.096C8.06754 513.308 7.89284 511.923 7.54347 510.939L2.88982 520.229C3.39292 520.949 4.08468 521.31 4.9651 521.31Z" fill="url(#paint20_linear_122_130)" fill-opacity="0.6"/>
<path d="M4.9651 531.511C6.46042 531.511 7.59239 532.141 8.36101 533.402C9.14361 534.649 9.5349 536.464 9.5349 538.847C9.5349 541.23 9.14361 543.052 8.36101 544.312C7.59239 545.573 6.46042 546.204 4.9651 546.204C3.48376 546.204 2.35178 545.573 1.56919 544.312C0.786589 543.052 0.395292 541.23 0.395292 538.847C0.395292 536.478 0.786589 534.663 1.56919 533.402C2.35178 532.141 3.48376 531.511 4.9651 531.511ZM1.88362 538.847C1.88362 540.537 2.03735 541.86 2.3448 542.816L6.99845 533.61C6.50933 532.958 5.83155 532.633 4.9651 532.633C4.00083 532.633 3.24618 533.145 2.70116 534.171C2.15613 535.182 1.88362 536.741 1.88362 538.847ZM4.9651 545.061C5.94335 545.061 6.70497 544.555 7.25 543.543C7.79502 542.518 8.06754 540.953 8.06754 538.847C8.06754 537.059 7.89284 535.674 7.54347 534.69L2.88982 543.98C3.39292 544.7 4.08468 545.061 4.9651 545.061Z" fill="url(#paint21_linear_122_130)" fill-opacity="0.6"/>
<path d="M6.22284 568.645H9.30432V569.747H1.31764V568.645H4.88125V556.966L1.48534 558.982L0.898385 558.046L5.09087 555.469H6.22284V568.645Z" fill="url(#paint22_linear_122_130)" fill-opacity="0.6"/>
<path d="M4.9651 579.013C6.46042 579.013 7.59239 579.643 8.36101 580.904C9.14361 582.151 9.5349 583.966 9.5349 586.349C9.5349 588.732 9.14361 590.554 8.36101 591.815C7.59239 593.075 6.46042 593.706 4.9651 593.706C3.48376 593.706 2.35178 593.075 1.56919 591.815C0.786589 590.554 0.395292 588.732 0.395292 586.349C0.395292 583.98 0.786589 582.165 1.56919 580.904C2.35178 579.643 3.48376 579.013 4.9651 579.013ZM1.88362 586.349C1.88362 588.039 2.03735 589.362 2.3448 590.318L6.99845 581.112C6.50933 580.461 5.83155 580.135 4.9651 580.135C4.00083 580.135 3.24618 580.648 2.70116 581.673C2.15613 582.684 1.88362 584.243 1.88362 586.349ZM4.9651 592.563C5.94335 592.563 6.70497 592.057 7.25 591.046C7.79502 590.02 8.06754 588.455 8.06754 586.349C8.06754 584.562 7.89284 583.176 7.54347 582.192L2.88982 591.482C3.39292 592.202 4.08468 592.563 4.9651 592.563Z" fill="url(#paint23_linear_122_130)" fill-opacity="0.6"/>
<path d="M6.22284 616.148H9.30432V617.249H1.31764V616.148H4.88125V604.468L1.48534 606.484L0.898385 605.549L5.09087 602.972H6.22284V616.148Z" fill="url(#paint24_linear_122_130)" fill-opacity="0.6"/>
<path d="M6.22284 639.899H9.30432V641H1.31764V639.899H4.88125V628.219L1.48534 630.235L0.898385 629.3L5.09087 626.723H6.22284V639.899Z" fill="url(#paint25_linear_122_130)" fill-opacity="0.6"/>
<path d="M-53.4302 365.253C-51.9349 365.253 -50.8029 365.884 -50.0343 367.144C-49.2517 368.391 -48.8604 370.206 -48.8604 372.589C-48.8604 374.972 -49.2517 376.794 -50.0343 378.055C-50.8029 379.316 -51.9349 379.946 -53.4302 379.946C-54.9115 379.946 -56.0435 379.316 -56.8261 378.055C-57.6087 376.794 -58 374.972 -58 372.589C-58 370.22 -57.6087 368.405 -56.8261 367.144C-56.0435 365.884 -54.9115 365.253 -53.4302 365.253ZM-56.5117 372.589C-56.5117 374.28 -56.3579 375.603 -56.0505 376.559L-51.3968 367.352C-51.886 366.701 -52.5637 366.375 -53.4302 366.375C-54.3945 366.375 -55.1491 366.888 -55.6941 367.913C-56.2392 368.925 -56.5117 370.483 -56.5117 372.589ZM-53.4302 378.803C-52.4519 378.803 -51.6903 378.297 -51.1453 377.286C-50.6003 376.261 -50.3278 374.695 -50.3278 372.589C-50.3278 370.802 -50.5024 369.417 -50.8518 368.433L-55.5055 377.722C-55.0024 378.443 -54.3106 378.803 -53.4302 378.803Z" fill="url(#paint26_linear_122_130)" fill-opacity="0.6"/>
<path d="M-53.4302 389.004C-51.9349 389.004 -50.8029 389.635 -50.0343 390.895C-49.2517 392.142 -48.8604 393.957 -48.8604 396.34C-48.8604 398.723 -49.2517 400.545 -50.0343 401.806C-50.8029 403.067 -51.9349 403.697 -53.4302 403.697C-54.9115 403.697 -56.0435 403.067 -56.8261 401.806C-57.6087 400.545 -58 398.723 -58 396.34C-58 393.971 -57.6087 392.156 -56.8261 390.895C-56.0435 389.635 -54.9115 389.004 -53.4302 389.004ZM-56.5117 396.34C-56.5117 398.031 -56.3579 399.354 -56.0505 400.31L-51.3968 391.103C-51.886 390.452 -52.5637 390.126 -53.4302 390.126C-54.3945 390.126 -55.1491 390.639 -55.6941 391.664C-56.2392 392.676 -56.5117 394.234 -56.5117 396.34ZM-53.4302 402.554C-52.4519 402.554 -51.6903 402.049 -51.1453 401.037C-50.6003 400.012 -50.3278 398.446 -50.3278 396.34C-50.3278 394.553 -50.5024 393.168 -50.8518 392.184L-55.5055 401.474C-55.0024 402.194 -54.3106 402.554 -53.4302 402.554Z" fill="url(#paint27_linear_122_130)" fill-opacity="0.6"/>
<path d="M-52.1724 426.139H-49.091V427.24H-57.0777V426.139H-53.514V414.459L-56.91 416.475L-57.4969 415.54L-53.3044 412.963H-52.1724V426.139Z" fill="url(#paint28_linear_122_130)" fill-opacity="0.6"/>
<path d="M-53.4302 436.506C-51.9349 436.506 -50.8029 437.137 -50.0343 438.398C-49.2517 439.644 -48.8604 441.459 -48.8604 443.842C-48.8604 446.225 -49.2517 448.047 -50.0343 449.308C-50.8029 450.569 -51.9349 451.199 -53.4302 451.199C-54.9115 451.199 -56.0435 450.569 -56.8261 449.308C-57.6087 448.047 -58 446.225 -58 443.842C-58 441.473 -57.6087 439.658 -56.8261 438.398C-56.0435 437.137 -54.9115 436.506 -53.4302 436.506ZM-56.5117 443.842C-56.5117 445.533 -56.3579 446.856 -56.0505 447.812L-51.3968 438.605C-51.886 437.954 -52.5637 437.629 -53.4302 437.629C-54.3945 437.629 -55.1491 438.141 -55.6941 439.166C-56.2392 440.178 -56.5117 441.737 -56.5117 443.842ZM-53.4302 450.056C-52.4519 450.056 -51.6903 449.551 -51.1453 448.539C-50.6003 447.514 -50.3278 445.948 -50.3278 443.842C-50.3278 442.055 -50.5024 440.67 -50.8518 439.686L-55.5055 448.976C-55.0024 449.696 -54.3106 450.056 -53.4302 450.056Z" fill="url(#paint29_linear_122_130)" fill-opacity="0.6"/>
<path d="M-52.1724 473.641H-49.091V474.743H-57.0777V473.641H-53.514V461.962L-56.91 463.977L-57.4969 463.042L-53.3044 460.465H-52.1724V473.641Z" fill="url(#paint30_linear_122_130)" fill-opacity="0.6"/>
<path d="M-52.1724 497.392H-49.091V498.494H-57.0777V497.392H-53.514V485.713L-56.91 487.728L-57.4969 486.793L-53.3044 484.216H-52.1724V497.392Z" fill="url(#paint31_linear_122_130)" fill-opacity="0.6"/>
<path d="M-13.2423 331.135H-10.1608V332.236H-18.1475V331.135H-14.5838V319.455L-17.9798 321.471L-18.5667 320.536L-14.3742 317.959H-13.2423V331.135Z" fill="url(#paint32_linear_122_130)" fill-opacity="0.6"/>
<path d="M-14.5 341.502C-13.0047 341.502 -11.8727 342.133 -11.1041 343.393C-10.3215 344.64 -9.9302 346.455 -9.9302 348.838C-9.9302 351.221 -10.3215 353.043 -11.1041 354.304C-11.8727 355.565 -13.0047 356.195 -14.5 356.195C-15.9813 356.195 -17.1133 355.565 -17.8959 354.304C-18.6785 353.043 -19.0698 351.221 -19.0698 348.838C-19.0698 346.469 -18.6785 344.654 -17.8959 343.393C-17.1133 342.133 -15.9813 341.502 -14.5 341.502ZM-17.5815 348.838C-17.5815 350.529 -17.4277 351.852 -17.1203 352.808L-12.4666 343.601C-12.9558 342.95 -13.6336 342.624 -14.5 342.624C-15.4643 342.624 -16.2189 343.137 -16.7639 344.162C-17.309 345.174 -17.5815 346.732 -17.5815 348.838ZM-14.5 355.052C-13.5218 355.052 -12.7601 354.546 -12.2151 353.535C-11.6701 352.51 -11.3976 350.944 -11.3976 348.838C-11.3976 347.051 -11.5723 345.665 -11.9216 344.682L-16.5753 353.971C-16.0722 354.692 -15.3804 355.052 -14.5 355.052Z" fill="url(#paint33_linear_122_130)" fill-opacity="0.6"/>
<path d="M-13.2423 378.637H-10.1608V379.738H-18.1475V378.637H-14.5838V366.957L-17.9798 368.973L-18.5667 368.038L-14.3742 365.461H-13.2423V378.637Z" fill="url(#paint34_linear_122_130)" fill-opacity="0.6"/>
<path d="M-13.2423 402.388H-10.1608V403.489H-18.1475V402.388H-14.5838V390.708L-17.9798 392.724L-18.5667 391.789L-14.3742 389.212H-13.2423V402.388Z" fill="url(#paint35_linear_122_130)" fill-opacity="0.6"/>
<path d="M-14.5 412.755C-13.0047 412.755 -11.8727 413.386 -11.1041 414.646C-10.3215 415.893 -9.9302 417.708 -9.9302 420.091C-9.9302 422.474 -10.3215 424.296 -11.1041 425.557C-11.8727 426.818 -13.0047 427.448 -14.5 427.448C-15.9813 427.448 -17.1133 426.818 -17.8959 425.557C-18.6785 424.296 -19.0698 422.474 -19.0698 420.091C-19.0698 417.722 -18.6785 415.907 -17.8959 414.646C-17.1133 413.386 -15.9813 412.755 -14.5 412.755ZM-17.5815 420.091C-17.5815 421.782 -17.4277 423.105 -17.1203 424.061L-12.4666 414.854C-12.9558 414.203 -13.6336 413.878 -14.5 413.878C-15.4643 413.878 -16.2189 414.39 -16.7639 415.415C-17.309 416.427 -17.5815 417.985 -17.5815 420.091ZM-14.5 426.305C-13.5218 426.305 -12.7601 425.8 -12.2151 424.788C-11.6701 423.763 -11.3976 422.197 -11.3976 420.091C-11.3976 418.304 -11.5723 416.919 -11.9216 415.935L-16.5753 425.225C-16.0722 425.945 -15.3804 426.305 -14.5 426.305Z" fill="url(#paint36_linear_122_130)" fill-opacity="0.6"/>
<path d="M-13.2423 449.89H-10.1608V450.992H-18.1475V449.89H-14.5838V438.21L-17.9798 440.226L-18.5667 439.291L-14.3742 436.714H-13.2423V449.89Z" fill="url(#paint37_linear_122_130)" fill-opacity="0.6"/>
<path d="M-13.2423 473.641H-10.1608V474.743H-18.1475V473.641H-14.5838V461.962L-17.9798 463.977L-18.5667 463.042L-14.3742 460.465H-13.2423V473.641Z" fill="url(#paint38_linear_122_130)" fill-opacity="0.6"/>
<path d="M-14.5 484.008C-13.0047 484.008 -11.8727 484.639 -11.1041 485.9C-10.3215 487.147 -9.9302 488.962 -9.9302 491.345C-9.9302 493.728 -10.3215 495.549 -11.1041 496.81C-11.8727 498.071 -13.0047 498.701 -14.5 498.701C-15.9813 498.701 -17.1133 498.071 -17.8959 496.81C-18.6785 495.549 -19.0698 493.728 -19.0698 491.345C-19.0698 488.975 -18.6785 487.16 -17.8959 485.9C-17.1133 484.639 -15.9813 484.008 -14.5 484.008ZM-17.5815 491.345C-17.5815 493.035 -17.4277 494.358 -17.1203 495.314L-12.4666 486.107C-12.9558 485.456 -13.6336 485.131 -14.5 485.131C-15.4643 485.131 -16.2189 485.643 -16.7639 486.669C-17.309 487.68 -17.5815 489.239 -17.5815 491.345ZM-14.5 497.558C-13.5218 497.558 -12.7601 497.053 -12.2151 496.041C-11.6701 495.016 -11.3976 493.451 -11.3976 491.345C-11.3976 489.557 -11.5723 488.172 -11.9216 487.188L-16.5753 496.478C-16.0722 497.198 -15.3804 497.558 -14.5 497.558Z" fill="url(#paint39_linear_122_130)" fill-opacity="0.6"/>
<path d="M-13.2423 521.143H-10.1608V522.245H-18.1475V521.143H-14.5838V509.464L-17.9798 511.48L-18.5667 510.544L-14.3742 507.967H-13.2423V521.143Z" fill="url(#paint40_linear_122_130)" fill-opacity="0.6"/>
<path d="M-14.5 531.511C-13.0047 531.511 -11.8727 532.141 -11.1041 533.402C-10.3215 534.649 -9.9302 536.464 -9.9302 538.847C-9.9302 541.23 -10.3215 543.052 -11.1041 544.312C-11.8727 545.573 -13.0047 546.204 -14.5 546.204C-15.9813 546.204 -17.1133 545.573 -17.8959 544.312C-18.6785 543.052 -19.0698 541.23 -19.0698 538.847C-19.0698 536.478 -18.6785 534.663 -17.8959 533.402C-17.1133 532.141 -15.9813 531.511 -14.5 531.511ZM-17.5815 538.847C-17.5815 540.537 -17.4277 541.86 -17.1203 542.816L-12.4666 533.61C-12.9558 532.958 -13.6336 532.633 -14.5 532.633C-15.4643 532.633 -16.2189 533.145 -16.7639 534.171C-17.309 535.182 -17.5815 536.741 -17.5815 538.847ZM-14.5 545.061C-13.5218 545.061 -12.7601 544.555 -12.2151 543.543C-11.6701 542.518 -11.3976 540.953 -11.3976 538.847C-11.3976 537.059 -11.5723 535.674 -11.9216 534.69L-16.5753 543.98C-16.0722 544.7 -15.3804 545.061 -14.5 545.061Z" fill="url(#paint41_linear_122_130)" fill-opacity="0.6"/>
<path d="M24.4302 317.751C25.9255 317.751 27.0575 318.381 27.8261 319.642C28.6087 320.889 29 322.704 29 325.087C29 327.47 28.6087 329.292 27.8261 330.553C27.0575 331.814 25.9255 332.444 24.4302 332.444C22.9489 332.444 21.8169 331.814 21.0343 330.553C20.2517 329.292 19.8604 327.47 19.8604 325.087C19.8604 322.718 20.2517 320.903 21.0343 319.642C21.8169 318.381 22.9489 317.751 24.4302 317.751ZM21.3487 325.087C21.3487 326.777 21.5024 328.101 21.8099 329.057L26.4636 319.85C25.9744 319.199 25.2966 318.873 24.4302 318.873C23.4659 318.873 22.7113 319.386 22.1663 320.411C21.6212 321.423 21.3487 322.981 21.3487 325.087ZM24.4302 331.301C25.4084 331.301 26.1701 330.795 26.7151 329.784C27.2601 328.759 27.5326 327.193 27.5326 325.087C27.5326 323.3 27.3579 321.914 27.0086 320.931L22.3549 330.22C22.858 330.941 23.5498 331.301 24.4302 331.301Z" fill="url(#paint42_linear_122_130)" fill-opacity="0.6"/>
<path d="M25.6879 354.886H28.7694V355.987H20.7827V354.886H24.3463V343.206L20.9504 345.222L20.3635 344.287L24.556 341.71H25.6879V354.886Z" fill="url(#paint43_linear_122_130)" fill-opacity="0.6"/>
<path d="M25.6879 378.637H28.7694V379.738H20.7827V378.637H24.3463V366.957L20.9504 368.973L20.3635 368.038L24.556 365.461H25.6879V378.637Z" fill="url(#paint44_linear_122_130)" fill-opacity="0.6"/>
<path d="M24.4302 389.004C25.9255 389.004 27.0575 389.635 27.8261 390.895C28.6087 392.142 29 393.957 29 396.34C29 398.723 28.6087 400.545 27.8261 401.806C27.0575 403.067 25.9255 403.697 24.4302 403.697C22.9489 403.697 21.8169 403.067 21.0343 401.806C20.2517 400.545 19.8604 398.723 19.8604 396.34C19.8604 393.971 20.2517 392.156 21.0343 390.895C21.8169 389.635 22.9489 389.004 24.4302 389.004ZM21.3487 396.34C21.3487 398.031 21.5024 399.354 21.8099 400.31L26.4636 391.103C25.9744 390.452 25.2966 390.126 24.4302 390.126C23.4659 390.126 22.7113 390.639 22.1663 391.664C21.6212 392.676 21.3487 394.234 21.3487 396.34ZM24.4302 402.554C25.4084 402.554 26.1701 402.049 26.7151 401.037C27.2601 400.012 27.5326 398.446 27.5326 396.34C27.5326 394.553 27.3579 393.168 27.0086 392.184L22.3549 401.474C22.858 402.194 23.5498 402.554 24.4302 402.554Z" fill="url(#paint45_linear_122_130)" fill-opacity="0.6"/>
<path d="M24.4302 412.755C25.9255 412.755 27.0575 413.386 27.8261 414.646C28.6087 415.893 29 417.708 29 420.091C29 422.474 28.6087 424.296 27.8261 425.557C27.0575 426.818 25.9255 427.448 24.4302 427.448C22.9489 427.448 21.8169 426.818 21.0343 425.557C20.2517 424.296 19.8604 422.474 19.8604 420.091C19.8604 417.722 20.2517 415.907 21.0343 414.646C21.8169 413.386 22.9489 412.755 24.4302 412.755ZM21.3487 420.091C21.3487 421.782 21.5024 423.105 21.8099 424.061L26.4636 414.854C25.9744 414.203 25.2966 413.878 24.4302 413.878C23.4659 413.878 22.7113 414.39 22.1663 415.415C21.6212 416.427 21.3487 417.985 21.3487 420.091ZM24.4302 426.305C25.4084 426.305 26.1701 425.8 26.7151 424.788C27.2601 423.763 27.5326 422.197 27.5326 420.091C27.5326 418.304 27.3579 416.919 27.0086 415.935L22.3549 425.225C22.858 425.945 23.5498 426.305 24.4302 426.305Z" fill="url(#paint46_linear_122_130)" fill-opacity="0.6"/>
<g opacity="0.6">
<path d="M852.93 -6C854.356 -6 855.436 -5.39504 856.17 -4.18512C856.916 -2.9885 857.29 -1.24675 857.29 1.04013C857.29 3.32701 856.916 5.0754 856.17 6.28532C855.436 7.49524 854.356 8.1002 852.93 8.1002C851.517 8.1002 850.437 7.49524 849.69 6.28532C848.943 5.0754 848.57 3.32701 848.57 1.04013C848.57 -1.23346 848.943 -2.97521 849.69 -4.18512C850.437 -5.39504 851.517 -6 852.93 -6ZM849.99 1.04013C849.99 2.66222 850.137 3.93196 850.43 4.84937L854.87 -3.98569C854.403 -4.61059 853.756 -4.92304 852.93 -4.92304C852.01 -4.92304 851.29 -4.43109 850.77 -3.44721C850.25 -2.47661 849.99 -0.980835 849.99 1.04013ZM852.93 7.00329C853.863 7.00329 854.59 6.518 855.11 5.5474C855.63 4.56351 855.89 3.06109 855.89 1.04013C855.89 -0.675031 855.723 -2.00461 855.39 -2.94861L850.95 5.96622C851.43 6.6576 852.09 7.00329 852.93 7.00329Z" fill="url(#paint47_linear_122_130)"/>
<path d="M854.13 29.6365H857.07V30.6936H849.45V29.6365H852.85V18.4282L849.61 20.3627L849.05 19.4653L853.05 16.9922H854.13V29.6365Z" fill="url(#paint48_linear_122_130)"/>
<path d="M852.93 39.5856C854.356 39.5856 855.436 40.1906 856.17 41.4005C856.916 42.5971 857.29 44.3389 857.29 46.6257C857.29 48.9126 856.916 50.661 856.17 51.8709C855.436 53.0808 854.356 53.6858 852.93 53.6858C851.517 53.6858 850.437 53.0808 849.69 51.8709C848.943 50.661 848.57 48.9126 848.57 46.6257C848.57 44.3522 848.943 42.6104 849.69 41.4005C850.437 40.1906 851.517 39.5856 852.93 39.5856ZM849.99 46.6257C849.99 48.2478 850.137 49.5176 850.43 50.435L854.87 41.5999C854.403 40.975 853.756 40.6626 852.93 40.6626C852.01 40.6626 851.29 41.1545 850.77 42.1384C850.25 43.109 849.99 44.6048 849.99 46.6257ZM852.93 52.5889C853.863 52.5889 854.59 52.1036 855.11 51.133C855.63 50.1491 855.89 48.6467 855.89 46.6257C855.89 44.9106 855.723 43.581 855.39 42.637L850.95 51.5518C851.43 52.2432 852.09 52.5889 852.93 52.5889Z" fill="url(#paint49_linear_122_130)"/>
<path d="M854.13 75.2221H857.07V76.2792H849.45V75.2221H852.85V64.0138L849.61 65.9483L849.05 65.0509L853.05 62.5778H854.13V75.2221Z" fill="url(#paint50_linear_122_130)"/>
<path d="M854.13 98.015H857.07V99.072H849.45V98.015H852.85V86.8066L849.61 88.7411L849.05 87.8437L853.05 85.3706H854.13V98.015Z" fill="url(#paint51_linear_122_130)"/>
<path d="M852.93 107.964C854.356 107.964 855.436 108.569 856.17 109.779C856.916 110.976 857.29 112.717 857.29 115.004C857.29 117.291 856.916 119.039 856.17 120.249C855.436 121.459 854.356 122.064 852.93 122.064C851.517 122.064 850.437 121.459 849.69 120.249C848.943 119.039 848.57 117.291 848.57 115.004C848.57 112.731 848.943 110.989 849.69 109.779C850.437 108.569 851.517 107.964 852.93 107.964ZM849.99 115.004C849.99 116.626 850.137 117.896 850.43 118.813L854.87 109.978C854.403 109.353 853.756 109.041 852.93 109.041C852.01 109.041 851.29 109.533 850.77 110.517C850.25 111.487 849.99 112.983 849.99 115.004ZM852.93 120.967C853.863 120.967 854.59 120.482 855.11 119.511C855.63 118.528 855.89 117.025 855.89 115.004C855.89 113.289 855.723 111.959 855.39 111.015L850.95 119.93C851.43 120.622 852.09 120.967 852.93 120.967Z" fill="url(#paint52_linear_122_130)"/>
<path d="M854.13 143.601H857.07V144.658H849.45V143.601H852.85V132.392L849.61 134.327L849.05 133.429L853.05 130.956H854.13V143.601Z" fill="url(#paint53_linear_122_130)"/>
<path d="M852.93 153.55C854.356 153.55 855.436 154.155 856.17 155.365C856.916 156.561 857.29 158.303 857.29 160.59C857.29 162.877 856.916 164.625 856.17 165.835C855.436 167.045 854.356 167.65 852.93 167.65C851.517 167.65 850.437 167.045 849.69 165.835C848.943 164.625 848.57 162.877 848.57 160.59C848.57 158.316 848.943 156.574 849.69 155.365C850.437 154.155 851.517 153.55 852.93 153.55ZM849.99 160.59C849.99 162.212 850.137 163.482 850.43 164.399L854.87 155.564C854.403 154.939 853.756 154.627 852.93 154.627C852.01 154.627 851.29 155.119 850.77 156.102C850.25 157.073 849.99 158.569 849.99 160.59ZM852.93 166.553C853.863 166.553 854.59 166.068 855.11 165.097C855.63 164.113 855.89 162.611 855.89 160.59C855.89 158.875 855.723 157.545 855.39 156.601L850.95 165.516C851.43 166.207 852.09 166.553 852.93 166.553Z" fill="url(#paint54_linear_122_130)"/>
<path d="M852.93 176.342C854.356 176.342 855.436 176.947 856.17 178.157C856.916 179.354 857.29 181.096 857.29 183.383C857.29 185.669 856.916 187.418 856.17 188.628C855.436 189.838 854.356 190.443 852.93 190.443C851.517 190.443 850.437 189.838 849.69 188.628C848.943 187.418 848.57 185.669 848.57 183.383C848.57 181.109 848.943 179.367 849.69 178.157C850.437 176.947 851.517 176.342 852.93 176.342ZM849.99 183.383C849.99 185.005 850.137 186.274 850.43 187.192L854.87 178.357C854.403 177.732 853.756 177.419 852.93 177.419C852.01 177.419 851.29 177.911 850.77 178.895C850.25 179.866 849.99 181.362 849.99 183.383ZM852.93 189.346C853.863 189.346 854.59 188.86 855.11 187.89C855.63 186.906 855.89 185.404 855.89 183.383C855.89 181.667 855.723 180.338 855.39 179.394L850.95 188.309C851.43 189 852.09 189.346 852.93 189.346Z" fill="url(#paint55_linear_122_130)"/>
<path d="M854.13 211.979H857.07V213.036H849.45V211.979H852.85V200.771L849.61 202.705L849.05 201.808L853.05 199.335H854.13V211.979Z" fill="url(#paint56_linear_122_130)"/>
<path d="M852.93 221.928C854.356 221.928 855.436 222.533 856.17 223.743C856.916 224.94 857.29 226.681 857.29 228.968C857.29 231.255 856.916 233.003 856.17 234.213C855.436 235.423 854.356 236.028 852.93 236.028C851.517 236.028 850.437 235.423 849.69 234.213C848.943 233.003 848.57 231.255 848.57 228.968C848.57 226.695 848.943 224.953 849.69 223.743C850.437 222.533 851.517 221.928 852.93 221.928ZM849.99 228.968C849.99 230.59 850.137 231.86 850.43 232.777L854.87 223.942C854.403 223.317 853.756 223.005 852.93 223.005C852.01 223.005 851.29 223.497 850.77 224.481C850.25 225.451 849.99 226.947 849.99 228.968ZM852.93 234.931C853.863 234.931 854.59 234.446 855.11 233.475C855.63 232.492 855.89 230.989 855.89 228.968C855.89 227.253 855.723 225.923 855.39 224.979L850.95 233.894C851.43 234.586 852.09 234.931 852.93 234.931Z" fill="url(#paint57_linear_122_130)"/>
<path d="M854.13 257.565H857.07V258.622H849.45V257.565H852.85V246.356L849.61 248.291L849.05 247.393L853.05 244.92H854.13V257.565Z" fill="url(#paint58_linear_122_130)"/>
<path d="M854.13 280.357H857.07V281.414H849.45V280.357H852.85V269.149L849.61 271.084L849.05 270.186L853.05 267.713H854.13V280.357Z" fill="url(#paint59_linear_122_130)"/>
<path d="M890.07 39.5856C891.497 39.5856 892.577 40.1906 893.31 41.4005C894.057 42.5971 894.43 44.3389 894.43 46.6257C894.43 48.9126 894.057 50.661 893.31 51.8709C892.577 53.0808 891.497 53.6858 890.07 53.6858C888.657 53.6858 887.577 53.0808 886.83 51.8709C886.084 50.661 885.71 48.9126 885.71 46.6257C885.71 44.3522 886.084 42.6104 886.83 41.4005C887.577 40.1906 888.657 39.5856 890.07 39.5856ZM887.13 46.6257C887.13 48.2478 887.277 49.5176 887.57 50.435L892.01 41.5999C891.543 40.975 890.897 40.6626 890.07 40.6626C889.15 40.6626 888.43 41.1545 887.91 42.1384C887.39 43.109 887.13 44.6048 887.13 46.6257ZM890.07 52.5889C891.003 52.5889 891.73 52.1036 892.25 51.133C892.77 50.1491 893.03 48.6467 893.03 46.6257C893.03 44.9106 892.863 43.581 892.53 42.637L888.09 51.5518C888.57 52.2432 889.23 52.5889 890.07 52.5889Z" fill="url(#paint60_linear_122_130)"/>
<path d="M891.27 75.2221H894.21V76.2792H886.59V75.2221H889.99V64.0138L886.75 65.9483L886.19 65.0509L890.19 62.5778H891.27V75.2221Z" fill="url(#paint61_linear_122_130)"/>
<path d="M890.07 85.1712C891.497 85.1712 892.577 85.7762 893.31 86.9861C894.057 88.1827 894.43 89.9245 894.43 92.2113C894.43 94.4982 894.057 96.2466 893.31 97.4565C892.577 98.6664 891.497 99.2714 890.07 99.2714C888.657 99.2714 887.577 98.6664 886.83 97.4565C886.084 96.2466 885.71 94.4982 885.71 92.2113C885.71 89.9378 886.084 88.196 886.83 86.9861C887.577 85.7762 888.657 85.1712 890.07 85.1712ZM887.13 92.2113C887.13 93.8334 887.277 95.1032 887.57 96.0206L892.01 87.1855C891.543 86.5606 890.897 86.2482 890.07 86.2482C889.15 86.2482 888.43 86.7401 887.91 87.724C887.39 88.6946 887.13 90.1904 887.13 92.2113ZM890.07 98.1745C891.003 98.1745 891.73 97.6892 892.25 96.7186C892.77 95.7347 893.03 94.2323 893.03 92.2113C893.03 90.4962 892.863 89.1666 892.53 88.2226L888.09 97.1374C888.57 97.8288 889.23 98.1745 890.07 98.1745Z" fill="url(#paint62_linear_122_130)"/>
<path d="M890.07 107.964C891.497 107.964 892.577 108.569 893.31 109.779C894.057 110.976 894.43 112.717 894.43 115.004C894.43 117.291 894.057 119.039 893.31 120.249C892.577 121.459 891.497 122.064 890.07 122.064C888.657 122.064 887.577 121.459 886.83 120.249C886.084 119.039 885.71 117.291 885.71 115.004C885.71 112.731 886.084 110.989 886.83 109.779C887.577 108.569 888.657 107.964 890.07 107.964ZM887.13 115.004C887.13 116.626 887.277 117.896 887.57 118.813L892.01 109.978C891.543 109.353 890.897 109.041 890.07 109.041C889.15 109.041 888.43 109.533 887.91 110.517C887.39 111.487 887.13 112.983 887.13 115.004ZM890.07 120.967C891.003 120.967 891.73 120.482 892.25 119.511C892.77 118.528 893.03 117.025 893.03 115.004C893.03 113.289 892.863 111.959 892.53 111.015L888.09 119.93C888.57 120.622 889.23 120.967 890.07 120.967Z" fill="url(#paint63_linear_122_130)"/>
<path d="M891.27 143.601H894.21V144.658H886.59V143.601H889.99V132.392L886.75 134.327L886.19 133.429L890.19 130.956H891.27V143.601Z" fill="url(#paint64_linear_122_130)"/>
<path d="M890.07 153.55C891.497 153.55 892.577 154.155 893.31 155.365C894.057 156.561 894.43 158.303 894.43 160.59C894.43 162.877 894.057 164.625 893.31 165.835C892.577 167.045 891.497 167.65 890.07 167.65C888.657 167.65 887.577 167.045 886.83 165.835C886.084 164.625 885.71 162.877 885.71 160.59C885.71 158.316 886.084 156.574 886.83 155.365C887.577 154.155 888.657 153.55 890.07 153.55ZM887.13 160.59C887.13 162.212 887.277 163.482 887.57 164.399L892.01 155.564C891.543 154.939 890.897 154.627 890.07 154.627C889.15 154.627 888.43 155.119 887.91 156.102C887.39 157.073 887.13 158.569 887.13 160.59ZM890.07 166.553C891.003 166.553 891.73 166.068 892.25 165.097C892.77 164.113 893.03 162.611 893.03 160.59C893.03 158.875 892.863 157.545 892.53 156.601L888.09 165.516C888.57 166.207 889.23 166.553 890.07 166.553Z" fill="url(#paint65_linear_122_130)"/>
<path d="M891.27 189.186H894.21V190.243H886.59V189.186H889.99V177.978L886.75 179.912L886.19 179.015L890.19 176.542H891.27V189.186Z" fill="url(#paint66_linear_122_130)"/>
<path d="M890.07 199.135C891.497 199.135 892.577 199.74 893.31 200.95C894.057 202.147 894.43 203.888 894.43 206.175C894.43 208.462 894.057 210.211 893.31 211.421C892.577 212.63 891.497 213.235 890.07 213.235C888.657 213.235 887.577 212.63 886.83 211.421C886.084 210.211 885.71 208.462 885.71 206.175C885.71 203.902 886.084 202.16 886.83 200.95C887.577 199.74 888.657 199.135 890.07 199.135ZM887.13 206.175C887.13 207.797 887.277 209.067 887.57 209.985L892.01 201.15C891.543 200.525 890.897 200.212 890.07 200.212C889.15 200.212 888.43 200.704 887.91 201.688C887.39 202.659 887.13 204.154 887.13 206.175ZM890.07 212.139C891.003 212.139 891.73 211.653 892.25 210.683C892.77 209.699 893.03 208.196 893.03 206.175C893.03 204.46 892.863 203.131 892.53 202.187L888.09 211.101C888.57 211.793 889.23 212.139 890.07 212.139Z" fill="url(#paint67_linear_122_130)"/>
<path d="M890.07 221.928C891.497 221.928 892.577 222.533 893.31 223.743C894.057 224.94 894.43 226.681 894.43 228.968C894.43 231.255 894.057 233.003 893.31 234.213C892.577 235.423 891.497 236.028 890.07 236.028C888.657 236.028 887.577 235.423 886.83 234.213C886.084 233.003 885.71 231.255 885.71 228.968C885.71 226.695 886.084 224.953 886.83 223.743C887.577 222.533 888.657 221.928 890.07 221.928ZM887.13 228.968C887.13 230.59 887.277 231.86 887.57 232.777L892.01 223.942C891.543 223.317 890.897 223.005 890.07 223.005C889.15 223.005 888.43 223.497 887.91 224.481C887.39 225.451 887.13 226.947 887.13 228.968ZM890.07 234.931C891.003 234.931 891.73 234.446 892.25 233.475C892.77 232.492 893.03 230.989 893.03 228.968C893.03 227.253 892.863 225.923 892.53 224.979L888.09 233.894C888.57 234.586 889.23 234.931 890.07 234.931Z" fill="url(#paint68_linear_122_130)"/>
<path d="M891.27 257.565H894.21V258.622H886.59V257.565H889.99V246.356L886.75 248.291L886.19 247.393L890.19 244.92H891.27V257.565Z" fill="url(#paint69_linear_122_130)"/>
<path d="M890.07 267.514C891.497 267.514 892.577 268.119 893.31 269.329C894.057 270.525 894.43 272.267 894.43 274.554C894.43 276.841 894.057 278.589 893.31 279.799C892.577 281.009 891.497 281.614 890.07 281.614C888.657 281.614 887.577 281.009 886.83 279.799C886.084 278.589 885.71 276.841 885.71 274.554C885.71 272.28 886.084 270.538 886.83 269.329C887.577 268.119 888.657 267.514 890.07 267.514ZM887.13 274.554C887.13 276.176 887.277 277.446 887.57 278.363L892.01 269.528C891.543 268.903 890.897 268.591 890.07 268.591C889.15 268.591 888.43 269.083 887.91 270.066C887.39 271.037 887.13 272.533 887.13 274.554ZM890.07 280.517C891.003 280.517 891.73 280.032 892.25 279.061C892.77 278.077 893.03 276.575 893.03 274.554C893.03 272.839 892.863 271.509 892.53 270.565L888.09 279.48C888.57 280.171 889.23 280.517 890.07 280.517Z" fill="url(#paint70_linear_122_130)"/>
<path d="M891.27 303.15H894.21V304.207H886.59V303.15H889.99V291.942L886.75 293.876L886.19 292.979L890.19 290.506H891.27V303.15Z" fill="url(#paint71_linear_122_130)"/>
<path d="M891.27 325.943H894.21V327H886.59V325.943H889.99V314.735L886.75 316.669L886.19 315.772L890.19 313.299H891.27V325.943Z" fill="url(#paint72_linear_122_130)"/>
<path d="M834.36 62.3784C835.786 62.3784 836.866 62.9834 837.599 64.1933C838.346 65.3899 838.719 67.1317 838.719 69.4185C838.719 71.7054 838.346 73.4538 837.599 74.6637C836.866 75.8736 835.786 76.4786 834.36 76.4786C832.946 76.4786 831.867 75.8736 831.12 74.6637C830.373 73.4538 830 71.7054 830 69.4185C830 67.145 830.373 65.4032 831.12 64.1933C831.867 62.9834 832.946 62.3784 834.36 62.3784ZM831.42 69.4185C831.42 71.0406 831.567 72.3104 831.86 73.2278L836.3 64.3927C835.833 63.7678 835.186 63.4554 834.36 63.4554C833.44 63.4554 832.72 63.9473 832.2 64.9312C831.68 65.9018 831.42 67.3976 831.42 69.4185ZM834.36 75.3817C835.293 75.3817 836.02 74.8964 836.54 73.9258C837.06 72.9419 837.319 71.4395 837.319 69.4185C837.319 67.7034 837.153 66.3738 836.82 65.4298L832.38 74.3446C832.86 75.036 833.52 75.3817 834.36 75.3817Z" fill="url(#paint73_linear_122_130)"/>
<path d="M834.36 85.1712C835.786 85.1712 836.866 85.7762 837.599 86.9861C838.346 88.1827 838.719 89.9245 838.719 92.2113C838.719 94.4982 838.346 96.2466 837.599 97.4565C836.866 98.6664 835.786 99.2714 834.36 99.2714C832.946 99.2714 831.867 98.6664 831.12 97.4565C830.373 96.2466 830 94.4982 830 92.2113C830 89.9378 830.373 88.196 831.12 86.9861C831.867 85.7762 832.946 85.1712 834.36 85.1712ZM831.42 92.2113C831.42 93.8334 831.567 95.1032 831.86 96.0206L836.3 87.1855C835.833 86.5606 835.186 86.2482 834.36 86.2482C833.44 86.2482 832.72 86.7401 832.2 87.724C831.68 88.6946 831.42 90.1904 831.42 92.2113ZM834.36 98.1745C835.293 98.1745 836.02 97.6892 836.54 96.7186C837.06 95.7347 837.319 94.2323 837.319 92.2113C837.319 90.4962 837.153 89.1666 836.82 88.2226L832.38 97.1374C832.86 97.8288 833.52 98.1745 834.36 98.1745Z" fill="url(#paint74_linear_122_130)"/>
<path d="M835.56 120.808H838.499V121.865H830.88V120.808H834.28V109.599L831.04 111.534L830.48 110.636L834.48 108.163H835.56V120.808Z" fill="url(#paint75_linear_122_130)"/>
<path d="M834.36 130.757C835.786 130.757 836.866 131.362 837.599 132.572C838.346 133.768 838.719 135.51 838.719 137.797C838.719 140.084 838.346 141.832 837.599 143.042C836.866 144.252 835.786 144.857 834.36 144.857C832.946 144.857 831.867 144.252 831.12 143.042C830.373 141.832 830 140.084 830 137.797C830 135.523 830.373 133.782 831.12 132.572C831.867 131.362 832.946 130.757 834.36 130.757ZM831.42 137.797C831.42 139.419 831.567 140.689 831.86 141.606L836.3 132.771C835.833 132.146 835.186 131.834 834.36 131.834C833.44 131.834 832.72 132.326 832.2 133.31C831.68 134.28 831.42 135.776 831.42 137.797ZM834.36 143.76C835.293 143.76 836.02 143.275 836.54 142.304C837.06 141.32 837.319 139.818 837.319 137.797C837.319 136.082 837.153 134.752 836.82 133.808L832.38 142.723C832.86 143.414 833.52 143.76 834.36 143.76Z" fill="url(#paint76_linear_122_130)"/>
<path d="M835.56 166.393H838.499V167.45H830.88V166.393H834.28V155.185L831.04 157.12L830.48 156.222L834.48 153.749H835.56V166.393Z" fill="url(#paint77_linear_122_130)"/>
<path d="M835.56 189.186H838.499V190.243H830.88V189.186H834.28V177.978L831.04 179.912L830.48 179.015L834.48 176.542H835.56V189.186Z" fill="url(#paint78_linear_122_130)"/>
<path d="M872.7 29.6365H875.64V30.6936H868.02V29.6365H871.42V18.4282L868.18 20.3627L867.62 19.4653L871.62 16.9922H872.7V29.6365Z" fill="url(#paint79_linear_122_130)"/>
<path d="M871.5 39.5856C872.927 39.5856 874.006 40.1906 874.74 41.4005C875.486 42.5971 875.86 44.3389 875.86 46.6257C875.86 48.9126 875.486 50.661 874.74 51.8709C874.006 53.0808 872.927 53.6858 871.5 53.6858C870.087 53.6858 869.007 53.0808 868.26 51.8709C867.514 50.661 867.14 48.9126 867.14 46.6257C867.14 44.3522 867.514 42.6104 868.26 41.4005C869.007 40.1906 870.087 39.5856 871.5 39.5856ZM868.56 46.6257C868.56 48.2478 868.707 49.5176 869 50.435L873.44 41.5999C872.973 40.975 872.327 40.6626 871.5 40.6626C870.58 40.6626 869.86 41.1545 869.34 42.1384C868.82 43.109 868.56 44.6048 868.56 46.6257ZM871.5 52.5889C872.433 52.5889 873.16 52.1036 873.68 51.133C874.2 50.1491 874.46 48.6467 874.46 46.6257C874.46 44.9106 874.293 43.581 873.96 42.637L869.52 51.5518C870 52.2432 870.66 52.5889 871.5 52.5889Z" fill="url(#paint80_linear_122_130)"/>
<path d="M872.7 75.2221H875.64V76.2792H868.02V75.2221H871.42V64.0138L868.18 65.9483L867.62 65.0509L871.62 62.5778H872.7V75.2221Z" fill="url(#paint81_linear_122_130)"/>
<path d="M872.7 98.015H875.64V99.072H868.02V98.015H871.42V86.8066L868.18 88.7411L867.62 87.8437L871.62 85.3706H872.7V98.015Z" fill="url(#paint82_linear_122_130)"/>
<path d="M871.5 107.964C872.927 107.964 874.006 108.569 874.74 109.779C875.486 110.976 875.86 112.717 875.86 115.004C875.86 117.291 875.486 119.039 874.74 120.249C874.006 121.459 872.927 122.064 871.5 122.064C870.087 122.064 869.007 121.459 868.26 120.249C867.514 119.039 867.14 117.291 867.14 115.004C867.14 112.731 867.514 110.989 868.26 109.779C869.007 108.569 870.087 107.964 871.5 107.964ZM868.56 115.004C868.56 116.626 868.707 117.896 869 118.813L873.44 109.978C872.973 109.353 872.327 109.041 871.5 109.041C870.58 109.041 869.86 109.533 869.34 110.517C868.82 111.487 868.56 112.983 868.56 115.004ZM871.5 120.967C872.433 120.967 873.16 120.482 873.68 119.511C874.2 118.528 874.46 117.025 874.46 115.004C874.46 113.289 874.293 111.959 873.96 111.015L869.52 119.93C870 120.622 870.66 120.967 871.5 120.967Z" fill="url(#paint83_linear_122_130)"/>
<path d="M872.7 143.601H875.64V144.658H868.02V143.601H871.42V132.392L868.18 134.327L867.62 133.429L871.62 130.956H872.7V143.601Z" fill="url(#paint84_linear_122_130)"/>
<path d="M872.7 166.393H875.64V167.45H868.02V166.393H871.42V155.185L868.18 157.12L867.62 156.222L871.62 153.749H872.7V166.393Z" fill="url(#paint85_linear_122_130)"/>
<path d="M871.5 176.342C872.927 176.342 874.006 176.947 874.74 178.157C875.486 179.354 875.86 181.096 875.86 183.383C875.86 185.669 875.486 187.418 874.74 188.628C874.006 189.838 872.927 190.443 871.5 190.443C870.087 190.443 869.007 189.838 868.26 188.628C867.514 187.418 867.14 185.669 867.14 183.383C867.14 181.109 867.514 179.367 868.26 178.157C869.007 176.947 870.087 176.342 871.5 176.342ZM868.56 183.383C868.56 185.005 868.707 186.274 869 187.192L873.44 178.357C872.973 177.732 872.327 177.419 871.5 177.419C870.58 177.419 869.86 177.911 869.34 178.895C868.82 179.866 868.56 181.362 868.56 183.383ZM871.5 189.346C872.433 189.346 873.16 188.86 873.68 187.89C874.2 186.906 874.46 185.404 874.46 183.383C874.46 181.667 874.293 180.338 873.96 179.394L869.52 188.309C870 189 870.66 189.346 871.5 189.346Z" fill="url(#paint86_linear_122_130)"/>
<path d="M872.7 211.979H875.64V213.036H868.02V211.979H871.42V200.771L868.18 202.705L867.62 201.808L871.62 199.335H872.7V211.979Z" fill="url(#paint87_linear_122_130)"/>
<path d="M871.5 221.928C872.927 221.928 874.006 222.533 874.74 223.743C875.486 224.94 875.86 226.681 875.86 228.968C875.86 231.255 875.486 233.003 874.74 234.213C874.006 235.423 872.927 236.028 871.5 236.028C870.087 236.028 869.007 235.423 868.26 234.213C867.514 233.003 867.14 231.255 867.14 228.968C867.14 226.695 867.514 224.953 868.26 223.743C869.007 222.533 870.087 221.928 871.5 221.928ZM868.56 228.968C868.56 230.59 868.707 231.86 869 232.777L873.44 223.942C872.973 223.317 872.327 223.005 871.5 223.005C870.58 223.005 869.86 223.497 869.34 224.481C868.82 225.451 868.56 226.947 868.56 228.968ZM871.5 234.931C872.433 234.931 873.16 234.446 873.68 233.475C874.2 232.492 874.46 230.989 874.46 228.968C874.46 227.253 874.293 225.923 873.96 224.979L869.52 233.894C870 234.586 870.66 234.931 871.5 234.931Z" fill="url(#paint88_linear_122_130)"/>
<path d="M908.64 16.7928C910.067 16.7928 911.147 17.3978 911.88 18.6077C912.627 19.8043 913 21.5461 913 23.8329C913 26.1198 912.627 27.8682 911.88 29.0781C911.147 30.288 910.067 30.893 908.64 30.893C907.227 30.893 906.147 30.288 905.401 29.0781C904.654 27.8682 904.281 26.1198 904.281 23.8329C904.281 21.5593 904.654 19.8176 905.401 18.6077C906.147 17.3978 907.227 16.7928 908.64 16.7928ZM905.7 23.8329C905.7 25.455 905.847 26.7248 906.14 27.6422L910.58 18.8071C910.114 18.1822 909.467 17.8698 908.64 17.8698C907.72 17.8698 907 18.3617 906.48 19.3456C905.96 20.3162 905.7 21.812 905.7 23.8329ZM908.64 29.7961C909.574 29.7961 910.3 29.3108 910.82 28.3402C911.34 27.3563 911.6 25.8539 911.6 23.8329C911.6 22.1178 911.433 20.7882 911.1 19.8442L906.66 28.759C907.14 29.4504 907.8 29.7961 908.64 29.7961Z" fill="url(#paint89_linear_122_130)"/>
<path d="M909.84 52.4293H912.78V53.4864H905.161V52.4293H908.56V41.221L905.321 43.1555L904.761 42.2581L908.76 39.785H909.84V52.4293Z" fill="url(#paint90_linear_122_130)"/>
<path d="M909.84 75.2221H912.78V76.2792H905.161V75.2221H908.56V64.0138L905.321 65.9483L904.761 65.0509L908.76 62.5778H909.84V75.2221Z" fill="url(#paint91_linear_122_130)"/>
<path d="M908.64 85.1712C910.067 85.1712 911.147 85.7762 911.88 86.9861C912.627 88.1827 913 89.9245 913 92.2113C913 94.4982 912.627 96.2466 911.88 97.4565C911.147 98.6664 910.067 99.2714 908.64 99.2714C907.227 99.2714 906.147 98.6664 905.401 97.4565C904.654 96.2466 904.281 94.4982 904.281 92.2113C904.281 89.9378 904.654 88.196 905.401 86.9861C906.147 85.7762 907.227 85.1712 908.64 85.1712ZM905.7 92.2113C905.7 93.8334 905.847 95.1032 906.14 96.0206L910.58 87.1855C910.114 86.5606 909.467 86.2482 908.64 86.2482C907.72 86.2482 907 86.7401 906.48 87.724C905.96 88.6946 905.7 90.1904 905.7 92.2113ZM908.64 98.1745C909.574 98.1745 910.3 97.6892 910.82 96.7186C911.34 95.7347 911.6 94.2323 911.6 92.2113C911.6 90.4962 911.433 89.1666 911.1 88.2226L906.66 97.1374C907.14 97.8288 907.8 98.1745 908.64 98.1745Z" fill="url(#paint92_linear_122_130)"/>
<path d="M908.64 107.964C910.067 107.964 911.147 108.569 911.88 109.779C912.627 110.976 913 112.717 913 115.004C913 117.291 912.627 119.039 911.88 120.249C911.147 121.459 910.067 122.064 908.64 122.064C907.227 122.064 906.147 121.459 905.401 120.249C904.654 119.039 904.281 117.291 904.281 115.004C904.281 112.731 904.654 110.989 905.401 109.779C906.147 108.569 907.227 107.964 908.64 107.964ZM905.7 115.004C905.7 116.626 905.847 117.896 906.14 118.813L910.58 109.978C910.114 109.353 909.467 109.041 908.64 109.041C907.72 109.041 907 109.533 906.48 110.517C905.96 111.487 905.7 112.983 905.7 115.004ZM908.64 120.967C909.574 120.967 910.3 120.482 910.82 119.511C911.34 118.528 911.6 117.025 911.6 115.004C911.6 113.289 911.433 111.959 911.1 111.015L906.66 119.93C907.14 120.622 907.8 120.967 908.64 120.967Z" fill="url(#paint93_linear_122_130)"/>
</g>
</g>
<defs>
<filter id="filter0_f_122_130" x="-625.19" y="-692.19" width="2141.38" height="1500.38" filterUnits="userSpaceOnUse" color-interpolation-filters="sRGB">
<feFlood flood-opacity="0" result="BackgroundImageFix"/>
<feBlend mode="normal" in="SourceGraphic" in2="BackgroundImageFix" result="shape"/>
<feGaussianBlur stdDeviation="200.095" result="effect1_foregroundBlur_122_130"/>
</filter>
<linearGradient id="paint0_linear_122_130" x1="-14.5" y1="294" x2="-14.5" y2="605.381" gradientUnits="userSpaceOnUse">
<stop stop-color="#F7DD43"/>
<stop offset="1" stop-color="#F7DD43" stop-opacity="0"/>
</linearGradient>
<linearGradient id="paint1_linear_122_130" x1="-14.5" y1="294" x2="-14.5" y2="605.381" gradientUnits="userSpaceOnUse">
<stop stop-color="#F7DD43"/>
<stop offset="1" stop-color="#F7DD43" stop-opacity="0"/>
</linearGradient>
<linearGradient id="paint2_linear_122_130" x1="-14.5" y1="294" x2="-14.5" y2="605.381" gradientUnits="userSpaceOnUse">
<stop stop-color="#F7DD43"/>
<stop offset="1" stop-color="#F7DD43" stop-opacity="0"/>
</linearGradient>
<linearGradient id="paint3_linear_122_130" x1="-14.5" y1="294" x2="-14.5" y2="605.381" gradientUnits="userSpaceOnUse">
<stop stop-color="#F7DD43"/>
<stop offset="1" stop-color="#F7DD43" stop-opacity="0"/>
</linearGradient>
<linearGradient id="paint4_linear_122_130" x1="-14.5" y1="294" x2="-14.5" y2="605.381" gradientUnits="userSpaceOnUse">
<stop stop-color="#F7DD43"/>
<stop offset="1" stop-color="#F7DD43" stop-opacity="0"/>
</linearGradient>
<linearGradient id="paint5_linear_122_130" x1="-14.5" y1="294" x2="-14.5" y2="605.381" gradientUnits="userSpaceOnUse">
<stop stop-color="#F7DD43"/>
<stop offset="1" stop-color="#F7DD43" stop-opacity="0"/>
</linearGradient>
<linearGradient id="paint6_linear_122_130" x1="-14.5" y1="294" x2="-14.5" y2="605.381" gradientUnits="userSpaceOnUse">
<stop stop-color="#F7DD43"/>
<stop offset="1" stop-color="#F7DD43" stop-opacity="0"/>
</linearGradient>
<linearGradient id="paint7_linear_122_130" x1="-14.5" y1="294" x2="-14.5" y2="605.381" gradientUnits="userSpaceOnUse">
<stop stop-color="#F7DD43"/>
<stop offset="1" stop-color="#F7DD43" stop-opacity="0"/>
</linearGradient>
<linearGradient id="paint8_linear_122_130" x1="-14.5" y1="294" x2="-14.5" y2="605.381" gradientUnits="userSpaceOnUse">
<stop stop-color="#F7DD43"/>
<stop offset="1" stop-color="#F7DD43" stop-opacity="0"/>
</linearGradient>
<linearGradient id="paint9_linear_122_130" x1="-14.5" y1="294" x2="-14.5" y2="605.381" gradientUnits="userSpaceOnUse">
<stop stop-color="#F7DD43"/>
<stop offset="1" stop-color="#F7DD43" stop-opacity="0"/>
</linearGradient>
<linearGradient id="paint10_linear_122_130" x1="-14.5" y1="294" x2="-14.5" y2="605.381" gradientUnits="userSpaceOnUse">
<stop stop-color="#F7DD43"/>
<stop offset="1" stop-color="#F7DD43" stop-opacity="0"/>
</linearGradient>
<linearGradient id="paint11_linear_122_130" x1="-14.5" y1="294" x2="-14.5" y2="605.381" gradientUnits="userSpaceOnUse">
<stop stop-color="#F7DD43"/>
<stop offset="1" stop-color="#F7DD43" stop-opacity="0"/>
</linearGradient>
<linearGradient id="paint12_linear_122_130" x1="-14.5" y1="294" x2="-14.5" y2="605.381" gradientUnits="userSpaceOnUse">
<stop stop-color="#F7DD43"/>
<stop offset="1" stop-color="#F7DD43" stop-opacity="0"/>
</linearGradient>
<linearGradient id="paint13_linear_122_130" x1="-14.5" y1="294" x2="-14.5" y2="605.381" gradientUnits="userSpaceOnUse">
<stop stop-color="#F7DD43"/>
<stop offset="1" stop-color="#F7DD43" stop-opacity="0"/>
</linearGradient>
<linearGradient id="paint14_linear_122_130" x1="-14.5" y1="294" x2="-14.5" y2="605.381" gradientUnits="userSpaceOnUse">
<stop stop-color="#F7DD43"/>
<stop offset="1" stop-color="#F7DD43" stop-opacity="0"/>
</linearGradient>
<linearGradient id="paint15_linear_122_130" x1="-14.5" y1="294" x2="-14.5" y2="605.381" gradientUnits="userSpaceOnUse">
<stop stop-color="#F7DD43"/>
<stop offset="1" stop-color="#F7DD43" stop-opacity="0"/>
</linearGradient>
<linearGradient id="paint16_linear_122_130" x1="-14.5" y1="294" x2="-14.5" y2="605.381" gradientUnits="userSpaceOnUse">
<stop stop-color="#F7DD43"/>
<stop offset="1" stop-color="#F7DD43" stop-opacity="0"/>
</linearGradient>
<linearGradient id="paint17_linear_122_130" x1="-14.5" y1="294" x2="-14.5" y2="605.381" gradientUnits="userSpaceOnUse">
<stop stop-color="#F7DD43"/>
<stop offset="1" stop-color="#F7DD43" stop-opacity="0"/>
</linearGradient>
<linearGradient id="paint18_linear_122_130" x1="-14.5" y1="294" x2="-14.5" y2="605.381" gradientUnits="userSpaceOnUse">
<stop stop-color="#F7DD43"/>
<stop offset="1" stop-color="#F7DD43" stop-opacity="0"/>
</linearGradient>
<linearGradient id="paint19_linear_122_130" x1="-14.5" y1="294" x2="-14.5" y2="605.381" gradientUnits="userSpaceOnUse">
<stop stop-color="#F7DD43"/>
<stop offset="1" stop-color="#F7DD43" stop-opacity="0"/>
</linearGradient>
<linearGradient id="paint20_linear_122_130" x1="-14.5" y1="294" x2="-14.5" y2="605.381" gradientUnits="userSpaceOnUse">
<stop stop-color="#F7DD43"/>
<stop offset="1" stop-color="#F7DD43" stop-opacity="0"/>
</linearGradient>
<linearGradient id="paint21_linear_122_130" x1="-14.5" y1="294" x2="-14.5" y2="605.381" gradientUnits="userSpaceOnUse">
<stop stop-color="#F7DD43"/>
<stop offset="1" stop-color="#F7DD43" stop-opacity="0"/>
</linearGradient>
<linearGradient id="paint22_linear_122_130" x1="-14.5" y1="294" x2="-14.5" y2="605.381" gradientUnits="userSpaceOnUse">
<stop stop-color="#F7DD43"/>
<stop offset="1" stop-color="#F7DD43" stop-opacity="0"/>
</linearGradient>
<linearGradient id="paint23_linear_122_130" x1="-14.5" y1="294" x2="-14.5" y2="605.381" gradientUnits="userSpaceOnUse">
<stop stop-color="#F7DD43"/>
<stop offset="1" stop-color="#F7DD43" stop-opacity="0"/>
</linearGradient>
<linearGradient id="paint24_linear_122_130" x1="-14.5" y1="294" x2="-14.5" y2="605.381" gradientUnits="userSpaceOnUse">
<stop stop-color="#F7DD43"/>
<stop offset="1" stop-color="#F7DD43" stop-opacity="0"/>
</linearGradient>
<linearGradient id="paint25_linear_122_130" x1="-14.5" y1="294" x2="-14.5" y2="605.381" gradientUnits="userSpaceOnUse">
<stop stop-color="#F7DD43"/>
<stop offset="1" stop-color="#F7DD43" stop-opacity="0"/>
</linearGradient>
<linearGradient id="paint26_linear_122_130" x1="-14.5" y1="294" x2="-14.5" y2="605.381" gradientUnits="userSpaceOnUse">
<stop stop-color="#F7DD43"/>
<stop offset="1" stop-color="#F7DD43" stop-opacity="0"/>
</linearGradient>
<linearGradient id="paint27_linear_122_130" x1="-14.5" y1="294" x2="-14.5" y2="605.381" gradientUnits="userSpaceOnUse">
<stop stop-color="#F7DD43"/>
<stop offset="1" stop-color="#F7DD43" stop-opacity="0"/>
</linearGradient>
<linearGradient id="paint28_linear_122_130" x1="-14.5" y1="294" x2="-14.5" y2="605.381" gradientUnits="userSpaceOnUse">
<stop stop-color="#F7DD43"/>
<stop offset="1" stop-color="#F7DD43" stop-opacity="0"/>
</linearGradient>
<linearGradient id="paint29_linear_122_130" x1="-14.5" y1="294" x2="-14.5" y2="605.381" gradientUnits="userSpaceOnUse">
<stop stop-color="#F7DD43"/>
<stop offset="1" stop-color="#F7DD43" stop-opacity="0"/>
</linearGradient>
<linearGradient id="paint30_linear_122_130" x1="-14.5" y1="294" x2="-14.5" y2="605.381" gradientUnits="userSpaceOnUse">
<stop stop-color="#F7DD43"/>
<stop offset="1" stop-color="#F7DD43" stop-opacity="0"/>
</linearGradient>
<linearGradient id="paint31_linear_122_130" x1="-14.5" y1="294" x2="-14.5" y2="605.381" gradientUnits="userSpaceOnUse">
<stop stop-color="#F7DD43"/>
<stop offset="1" stop-color="#F7DD43" stop-opacity="0"/>
</linearGradient>
<linearGradient id="paint32_linear_122_130" x1="-14.5" y1="294" x2="-14.5" y2="605.381" gradientUnits="userSpaceOnUse">
<stop stop-color="#F7DD43"/>
<stop offset="1" stop-color="#F7DD43" stop-opacity="0"/>
</linearGradient>
<linearGradient id="paint33_linear_122_130" x1="-14.5" y1="294" x2="-14.5" y2="605.381" gradientUnits="userSpaceOnUse">
<stop stop-color="#F7DD43"/>
<stop offset="1" stop-color="#F7DD43" stop-opacity="0"/>
</linearGradient>
<linearGradient id="paint34_linear_122_130" x1="-14.5" y1="294" x2="-14.5" y2="605.381" gradientUnits="userSpaceOnUse">
<stop stop-color="#F7DD43"/>
<stop offset="1" stop-color="#F7DD43" stop-opacity="0"/>
</linearGradient>
<linearGradient id="paint35_linear_122_130" x1="-14.5" y1="294" x2="-14.5" y2="605.381" gradientUnits="userSpaceOnUse">
<stop stop-color="#F7DD43"/>
<stop offset="1" stop-color="#F7DD43" stop-opacity="0"/>
</linearGradient>
<linearGradient id="paint36_linear_122_130" x1="-14.5" y1="294" x2="-14.5" y2="605.381" gradientUnits="userSpaceOnUse">
<stop stop-color="#F7DD43"/>
<stop offset="1" stop-color="#F7DD43" stop-opacity="0"/>
</linearGradient>
<linearGradient id="paint37_linear_122_130" x1="-14.5" y1="294" x2="-14.5" y2="605.381" gradientUnits="userSpaceOnUse">
<stop stop-color="#F7DD43"/>
<stop offset="1" stop-color="#F7DD43" stop-opacity="0"/>
</linearGradient>
<linearGradient id="paint38_linear_122_130" x1="-14.5" y1="294" x2="-14.5" y2="605.381" gradientUnits="userSpaceOnUse">
<stop stop-color="#F7DD43"/>
<stop offset="1" stop-color="#F7DD43" stop-opacity="0"/>
</linearGradient>
<linearGradient id="paint39_linear_122_130" x1="-14.5" y1="294" x2="-14.5" y2="605.381" gradientUnits="userSpaceOnUse">
<stop stop-color="#F7DD43"/>
<stop offset="1" stop-color="#F7DD43" stop-opacity="0"/>
</linearGradient>
<linearGradient id="paint40_linear_122_130" x1="-14.5" y1="294" x2="-14.5" y2="605.381" gradientUnits="userSpaceOnUse">
<stop stop-color="#F7DD43"/>
<stop offset="1" stop-color="#F7DD43" stop-opacity="0"/>
</linearGradient>
<linearGradient id="paint41_linear_122_130" x1="-14.5" y1="294" x2="-14.5" y2="605.381" gradientUnits="userSpaceOnUse">
<stop stop-color="#F7DD43"/>
<stop offset="1" stop-color="#F7DD43" stop-opacity="0"/>
</linearGradient>
<linearGradient id="paint42_linear_122_130" x1="-14.5" y1="294" x2="-14.5" y2="605.381" gradientUnits="userSpaceOnUse">
<stop stop-color="#F7DD43"/>
<stop offset="1" stop-color="#F7DD43" stop-opacity="0"/>
</linearGradient>
<linearGradient id="paint43_linear_122_130" x1="-14.5" y1="294" x2="-14.5" y2="605.381" gradientUnits="userSpaceOnUse">
<stop stop-color="#F7DD43"/>
<stop offset="1" stop-color="#F7DD43" stop-opacity="0"/>
</linearGradient>
<linearGradient id="paint44_linear_122_130" x1="-14.5" y1="294" x2="-14.5" y2="605.381" gradientUnits="userSpaceOnUse">
<stop stop-color="#F7DD43"/>
<stop offset="1" stop-color="#F7DD43" stop-opacity="0"/>
</linearGradient>
<linearGradient id="paint45_linear_122_130" x1="-14.5" y1="294" x2="-14.5" y2="605.381" gradientUnits="userSpaceOnUse">
<stop stop-color="#F7DD43"/>
<stop offset="1" stop-color="#F7DD43" stop-opacity="0"/>
</linearGradient>
<linearGradient id="paint46_linear_122_130" x1="-14.5" y1="294" x2="-14.5" y2="605.381" gradientUnits="userSpaceOnUse">
<stop stop-color="#F7DD43"/>
<stop offset="1" stop-color="#F7DD43" stop-opacity="0"/>
</linearGradient>
<linearGradient id="paint47_linear_122_130" x1="871.5" y1="-6" x2="871.5" y2="292.818" gradientUnits="userSpaceOnUse">
<stop stop-color="#F7DD43"/>
<stop offset="1" stop-color="#F7DD43" stop-opacity="0"/>
</linearGradient>
<linearGradient id="paint48_linear_122_130" x1="871.5" y1="-6" x2="871.5" y2="292.818" gradientUnits="userSpaceOnUse">
<stop stop-color="#F7DD43"/>
<stop offset="1" stop-color="#F7DD43" stop-opacity="0"/>
</linearGradient>
<linearGradient id="paint49_linear_122_130" x1="871.5" y1="-6" x2="871.5" y2="292.818" gradientUnits="userSpaceOnUse">
<stop stop-color="#F7DD43"/>
<stop offset="1" stop-color="#F7DD43" stop-opacity="0"/>
</linearGradient>
<linearGradient id="paint50_linear_122_130" x1="871.5" y1="-6" x2="871.5" y2="292.818" gradientUnits="userSpaceOnUse">
<stop stop-color="#F7DD43"/>
<stop offset="1" stop-color="#F7DD43" stop-opacity="0"/>
</linearGradient>
<linearGradient id="paint51_linear_122_130" x1="871.5" y1="-6" x2="871.5" y2="292.818" gradientUnits="userSpaceOnUse">
<stop stop-color="#F7DD43"/>
<stop offset="1" stop-color="#F7DD43" stop-opacity="0"/>
</linearGradient>
<linearGradient id="paint52_linear_122_130" x1="871.5" y1="-6" x2="871.5" y2="292.818" gradientUnits="userSpaceOnUse">
<stop stop-color="#F7DD43"/>
<stop offset="1" stop-color="#F7DD43" stop-opacity="0"/>
</linearGradient>
<linearGradient id="paint53_linear_122_130" x1="871.5" y1="-6" x2="871.5" y2="292.818" gradientUnits="userSpaceOnUse">
<stop stop-color="#F7DD43"/>
<stop offset="1" stop-color="#F7DD43" stop-opacity="0"/>
</linearGradient>
<linearGradient id="paint54_linear_122_130" x1="871.5" y1="-6" x2="871.5" y2="292.818" gradientUnits="userSpaceOnUse">
<stop stop-color="#F7DD43"/>
<stop offset="1" stop-color="#F7DD43" stop-opacity="0"/>
</linearGradient>
<linearGradient id="paint55_linear_122_130" x1="871.5" y1="-6" x2="871.5" y2="292.818" gradientUnits="userSpaceOnUse">
<stop stop-color="#F7DD43"/>
<stop offset="1" stop-color="#F7DD43" stop-opacity="0"/>
</linearGradient>
<linearGradient id="paint56_linear_122_130" x1="871.5" y1="-6" x2="871.5" y2="292.818" gradientUnits="userSpaceOnUse">
<stop stop-color="#F7DD43"/>
<stop offset="1" stop-color="#F7DD43" stop-opacity="0"/>
</linearGradient>
<linearGradient id="paint57_linear_122_130" x1="871.5" y1="-6" x2="871.5" y2="292.818" gradientUnits="userSpaceOnUse">
<stop stop-color="#F7DD43"/>
<stop offset="1" stop-color="#F7DD43" stop-opacity="0"/>
</linearGradient>
<linearGradient id="paint58_linear_122_130" x1="871.5" y1="-6" x2="871.5" y2="292.818" gradientUnits="userSpaceOnUse">
<stop stop-color="#F7DD43"/>
<stop offset="1" stop-color="#F7DD43" stop-opacity="0"/>
</linearGradient>
<linearGradient id="paint59_linear_122_130" x1="871.5" y1="-6" x2="871.5" y2="292.818" gradientUnits="userSpaceOnUse">
<stop stop-color="#F7DD43"/>
<stop offset="1" stop-color="#F7DD43" stop-opacity="0"/>
</linearGradient>
<linearGradient id="paint60_linear_122_130" x1="871.5" y1="-6" x2="871.5" y2="292.818" gradientUnits="userSpaceOnUse">
<stop stop-color="#F7DD43"/>
<stop offset="1" stop-color="#F7DD43" stop-opacity="0"/>
</linearGradient>
<linearGradient id="paint61_linear_122_130" x1="871.5" y1="-6" x2="871.5" y2="292.818" gradientUnits="userSpaceOnUse">
<stop stop-color="#F7DD43"/>
<stop offset="1" stop-color="#F7DD43" stop-opacity="0"/>
</linearGradient>
<linearGradient id="paint62_linear_122_130" x1="871.5" y1="-6" x2="871.5" y2="292.818" gradientUnits="userSpaceOnUse">
<stop stop-color="#F7DD43"/>
<stop offset="1" stop-color="#F7DD43" stop-opacity="0"/>
</linearGradient>
<linearGradient id="paint63_linear_122_130" x1="871.5" y1="-6" x2="871.5" y2="292.818" gradientUnits="userSpaceOnUse">
<stop stop-color="#F7DD43"/>
<stop offset="1" stop-color="#F7DD43" stop-opacity="0"/>
</linearGradient>
<linearGradient id="paint64_linear_122_130" x1="871.5" y1="-6" x2="871.5" y2="292.818" gradientUnits="userSpaceOnUse">
<stop stop-color="#F7DD43"/>
<stop offset="1" stop-color="#F7DD43" stop-opacity="0"/>
</linearGradient>
<linearGradient id="paint65_linear_122_130" x1="871.5" y1="-6" x2="871.5" y2="292.818" gradientUnits="userSpaceOnUse">
<stop stop-color="#F7DD43"/>
<stop offset="1" stop-color="#F7DD43" stop-opacity="0"/>
</linearGradient>
<linearGradient id="paint66_linear_122_130" x1="871.5" y1="-6" x2="871.5" y2="292.818" gradientUnits="userSpaceOnUse">
<stop stop-color="#F7DD43"/>
<stop offset="1" stop-color="#F7DD43" stop-opacity="0"/>
</linearGradient>
<linearGradient id="paint67_linear_122_130" x1="871.5" y1="-6" x2="871.5" y2="292.818" gradientUnits="userSpaceOnUse">
<stop stop-color="#F7DD43"/>
<stop offset="1" stop-color="#F7DD43" stop-opacity="0"/>
</linearGradient>
<linearGradient id="paint68_linear_122_130" x1="871.5" y1="-6" x2="871.5" y2="292.818" gradientUnits="userSpaceOnUse">
<stop stop-color="#F7DD43"/>
<stop offset="1" stop-color="#F7DD43" stop-opacity="0"/>
</linearGradient>
<linearGradient id="paint69_linear_122_130" x1="871.5" y1="-6" x2="871.5" y2="292.818" gradientUnits="userSpaceOnUse">
<stop stop-color="#F7DD43"/>
<stop offset="1" stop-color="#F7DD43" stop-opacity="0"/>
</linearGradient>
<linearGradient id="paint70_linear_122_130" x1="871.5" y1="-6" x2="871.5" y2="292.818" gradientUnits="userSpaceOnUse">
<stop stop-color="#F7DD43"/>
<stop offset="1" stop-color="#F7DD43" stop-opacity="0"/>
</linearGradient>
<linearGradient id="paint71_linear_122_130" x1="871.5" y1="-6" x2="871.5" y2="292.818" gradientUnits="userSpaceOnUse">
<stop stop-color="#F7DD43"/>
<stop offset="1" stop-color="#F7DD43" stop-opacity="0"/>
</linearGradient>
<linearGradient id="paint72_linear_122_130" x1="871.5" y1="-6" x2="871.5" y2="292.818" gradientUnits="userSpaceOnUse">
<stop stop-color="#F7DD43"/>
<stop offset="1" stop-color="#F7DD43" stop-opacity="0"/>
</linearGradient>
<linearGradient id="paint73_linear_122_130" x1="871.5" y1="-6" x2="871.5" y2="292.818" gradientUnits="userSpaceOnUse">
<stop stop-color="#F7DD43"/>
<stop offset="1" stop-color="#F7DD43" stop-opacity="0"/>
</linearGradient>
<linearGradient id="paint74_linear_122_130" x1="871.5" y1="-6" x2="871.5" y2="292.818" gradientUnits="userSpaceOnUse">
<stop stop-color="#F7DD43"/>
<stop offset="1" stop-color="#F7DD43" stop-opacity="0"/>
</linearGradient>
<linearGradient id="paint75_linear_122_130" x1="871.5" y1="-6" x2="871.5" y2="292.818" gradientUnits="userSpaceOnUse">
<stop stop-color="#F7DD43"/>
<stop offset="1" stop-color="#F7DD43" stop-opacity="0"/>
</linearGradient>
<linearGradient id="paint76_linear_122_130" x1="871.5" y1="-6" x2="871.5" y2="292.818" gradientUnits="userSpaceOnUse">
<stop stop-color="#F7DD43"/>
<stop offset="1" stop-color="#F7DD43" stop-opacity="0"/>
</linearGradient>
<linearGradient id="paint77_linear_122_130" x1="871.5" y1="-6" x2="871.5" y2="292.818" gradientUnits="userSpaceOnUse">
<stop stop-color="#F7DD43"/>
<stop offset="1" stop-color="#F7DD43" stop-opacity="0"/>
</linearGradient>
<linearGradient id="paint78_linear_122_130" x1="871.5" y1="-6" x2="871.5" y2="292.818" gradientUnits="userSpaceOnUse">
<stop stop-color="#F7DD43"/>
<stop offset="1" stop-color="#F7DD43" stop-opacity="0"/>
</linearGradient>
<linearGradient id="paint79_linear_122_130" x1="871.5" y1="-6" x2="871.5" y2="292.818" gradientUnits="userSpaceOnUse">
<stop stop-color="#F7DD43"/>
<stop offset="1" stop-color="#F7DD43" stop-opacity="0"/>
</linearGradient>
<linearGradient id="paint80_linear_122_130" x1="871.5" y1="-6" x2="871.5" y2="292.818" gradientUnits="userSpaceOnUse">
<stop stop-color="#F7DD43"/>
<stop offset="1" stop-color="#F7DD43" stop-opacity="0"/>
</linearGradient>
<linearGradient id="paint81_linear_122_130" x1="871.5" y1="-6" x2="871.5" y2="292.818" gradientUnits="userSpaceOnUse">
<stop stop-color="#F7DD43"/>
<stop offset="1" stop-color="#F7DD43" stop-opacity="0"/>
</linearGradient>
<linearGradient id="paint82_linear_122_130" x1="871.5" y1="-6" x2="871.5" y2="292.818" gradientUnits="userSpaceOnUse">
<stop stop-color="#F7DD43"/>
<stop offset="1" stop-color="#F7DD43" stop-opacity="0"/>
</linearGradient>
<linearGradient id="paint83_linear_122_130" x1="871.5" y1="-6" x2="871.5" y2="292.818" gradientUnits="userSpaceOnUse">
<stop stop-color="#F7DD43"/>
<stop offset="1" stop-color="#F7DD43" stop-opacity="0"/>
</linearGradient>
<linearGradient id="paint84_linear_122_130" x1="871.5" y1="-6" x2="871.5" y2="292.818" gradientUnits="userSpaceOnUse">
<stop stop-color="#F7DD43"/>
<stop offset="1" stop-color="#F7DD43" stop-opacity="0"/>
</linearGradient>
<linearGradient id="paint85_linear_122_130" x1="871.5" y1="-6" x2="871.5" y2="292.818" gradientUnits="userSpaceOnUse">
<stop stop-color="#F7DD43"/>
<stop offset="1" stop-color="#F7DD43" stop-opacity="0"/>
</linearGradient>
<linearGradient id="paint86_linear_122_130" x1="871.5" y1="-6" x2="871.5" y2="292.818" gradientUnits="userSpaceOnUse">
<stop stop-color="#F7DD43"/>
<stop offset="1" stop-color="#F7DD43" stop-opacity="0"/>
</linearGradient>
<linearGradient id="paint87_linear_122_130" x1="871.5" y1="-6" x2="871.5" y2="292.818" gradientUnits="userSpaceOnUse">
<stop stop-color="#F7DD43"/>
<stop offset="1" stop-color="#F7DD43" stop-opacity="0"/>
</linearGradient>
<linearGradient id="paint88_linear_122_130" x1="871.5" y1="-6" x2="871.5" y2="292.818" gradientUnits="userSpaceOnUse">
<stop stop-color="#F7DD43"/>
<stop offset="1" stop-color="#F7DD43" stop-opacity="0"/>
</linearGradient>
<linearGradient id="paint89_linear_122_130" x1="871.5" y1="-6" x2="871.5" y2="292.818" gradientUnits="userSpaceOnUse">
<stop stop-color="#F7DD43"/>
<stop offset="1" stop-color="#F7DD43" stop-opacity="0"/>
</linearGradient>
<linearGradient id="paint90_linear_122_130" x1="871.5" y1="-6" x2="871.5" y2="292.818" gradientUnits="userSpaceOnUse">
<stop stop-color="#F7DD43"/>
<stop offset="1" stop-color="#F7DD43" stop-opacity="0"/>
</linearGradient>
<linearGradient id="paint91_linear_122_130" x1="871.5" y1="-6" x2="871.5" y2="292.818" gradientUnits="userSpaceOnUse">
<stop stop-color="#F7DD43"/>
<stop offset="1" stop-color="#F7DD43" stop-opacity="0"/>
</linearGradient>
<linearGradient id="paint92_linear_122_130" x1="871.5" y1="-6" x2="871.5" y2="292.818" gradientUnits="userSpaceOnUse">
<stop stop-color="#F7DD43"/>
<stop offset="1" stop-color="#F7DD43" stop-opacity="0"/>
</linearGradient>
<linearGradient id="paint93_linear_122_130" x1="871.5" y1="-6" x2="871.5" y2="292.818" gradientUnits="userSpaceOnUse">
<stop stop-color="#F7DD43"/>
<stop offset="1" stop-color="#F7DD43" stop-opacity="0"/>
</linearGradient>
<clipPath id="clip0_122_130">
<rect width="1024" height="753" fill="white"/>
</clipPath>
</defs>
</svg>
